# xmcd
#
# Track frame offsets:
#	150
#	22234
#	39483
#	63754
#	80862
#	98048
#	116195
#
# Disc length: 1774 seconds
#
# Revision: 0
# Processed by: cddbd v1.5.1PL2 Copyright (c) Steve Scherf et al.
# Submitted via: dBpowerAMP V4.0
#
DISCID=5b06ec07
DTITLE=Amy Smith - The Landing Tapes Ep
DYEAR=2005
DGENRE=Blues
TTITLE0=How Long
TTITLE1=Mary-Anna
TTITLE2=105 Feet High
TTITLE3=All You Can Do
TTITLE4=Alright With Me
TTITLE5=In My Hands
TTITLE6=Another Time, Another Place
EXTD=Amy Smith, Landing Tapes Ep, 2005
EXTT0=
EXTT1=
EXTT2=
EXTT3=
EXTT4=
EXTT5=
EXTT6=
PLAYORDER=
